<svg id="Layer_1" data-name="Layer 1" xmlns="http://www.w3.org/2000/svg" viewBox="0 0 433.07 560"><title>matthewulstad_logo</title><path d="M357.31,680l-2.13-39.68H323c-42.27,0-66.81-29.62-77.11-76.3l-9-40.33-53.38-11.53L228.12,349.6a168.27,168.27,0,0,1-7-47.88C221.08,201.53,309.8,120,418.82,120s196.58,81.54,197.7,181.72c0.27,25.19-9.3,59.74-21.87,98.28-12.31,37.75-25.91,75.06-27.72,88.45l0,0.56L555.78,633.88,357.31,680h0Zm62.47-491C350,189,293.34,245.74,293.34,315.44A126.58,126.58,0,0,0,419.77,441.88c69.73,0,126.47-56.73,126.47-126.44S489.5,189,419.77,189h0Z" transform="translate(-183.47 -120)"/></svg>